<?xml version="1.0" encoding="utf-8"?>
<!-- Generator: Adobe Illustrator 19.0.0, SVG Export Plug-In . SVG Version: 6.00 Build 0)  -->
<svg version="1.1" id="Layer_1" xmlns="http://www.w3.org/2000/svg" xmlns:xlink="http://www.w3.org/1999/xlink" x="0px" y="0px"
	 viewBox="342.5 252.9 107.2 107.2" style="enable-background:new 342.5 252.9 107.2 107.2;" xml:space="preserve">
<style type="text/css">
	.st0{fill:#303030;}
	.st1{fill:#010101;}
</style>
<g>
	<g>
		<g>
			<path id="XMLID_28_" class="st0" d="M396.1,360.1c-29.5,0-53.6-24-53.6-53.6c0-29.5,24-53.6,53.6-53.6s53.6,24,53.6,53.6
				C449.6,336.1,425.6,360.1,396.1,360.1z M396.1,255c-28.4,0-51.6,23.1-51.6,51.6s23.1,51.6,51.6,51.6c28.4,0,51.6-23.1,51.6-51.6
				S424.5,255,396.1,255z"/>
		</g>
	</g>
	<g id="XMLID_2_">
		<path id="XMLID_3_" class="st1" d="M380.8,302.3c-0.3,0.4-0.6,0.8-1,1.2c-0.4,0.4-0.9,0.7-1.4,1s-1.1,0.5-1.8,0.7
			c-0.6,0.2-1.4,0.3-2.1,0.3c-1.3,0-2.5-0.2-3.6-0.7c-1.1-0.4-2-1.1-2.8-1.9s-1.4-1.7-1.8-2.8c-0.4-1.1-0.7-2.3-0.7-3.6
			s0.2-2.5,0.7-3.6c0.4-1.1,1.1-2,1.9-2.8s1.7-1.4,2.8-1.9c1.1-0.4,2.3-0.7,3.5-0.7c0.6,0,1.2,0.1,1.8,0.2c0.6,0.1,1.2,0.3,1.7,0.5
			s1,0.5,1.4,0.8s0.8,0.7,1.1,1.1l-1.4,1.1c-0.2-0.3-0.4-0.5-0.7-0.8c-0.3-0.3-0.6-0.5-1-0.7s-0.8-0.4-1.3-0.5s-1-0.2-1.5-0.2
			c-1.1,0-2.1,0.2-3,0.6s-1.6,0.9-2.2,1.6s-1.1,1.5-1.4,2.4s-0.5,1.8-0.5,2.8s0.2,1.9,0.5,2.8s0.8,1.7,1.4,2.4
			c0.6,0.7,1.3,1.2,2.2,1.6c0.9,0.4,1.9,0.6,2.9,0.6s1.9-0.2,2.8-0.6s1.6-1,2.2-1.9L380.8,302.3z"/>
		<path id="XMLID_5_" class="st1" d="M392,290.8c-0.4-0.5-0.8-0.9-1.4-1.2s-1.3-0.5-2.1-0.5c-0.4,0-0.8,0.1-1.3,0.2
			c-0.4,0.1-0.8,0.3-1.2,0.6c-0.4,0.3-0.6,0.6-0.9,1c-0.2,0.4-0.3,0.9-0.3,1.4s0.1,1,0.3,1.3s0.5,0.7,0.8,0.9
			c0.3,0.2,0.7,0.5,1.2,0.6c0.4,0.2,0.9,0.3,1.4,0.5c0.6,0.2,1.2,0.4,1.8,0.6c0.6,0.2,1.1,0.5,1.6,0.9s0.9,0.8,1.2,1.4
			c0.3,0.6,0.5,1.3,0.5,2.1s-0.2,1.6-0.5,2.2s-0.7,1.1-1.3,1.5c-0.5,0.4-1.1,0.7-1.8,0.9s-1.3,0.3-2,0.3c-0.5,0-1-0.1-1.5-0.2
			s-1-0.3-1.5-0.5s-0.9-0.5-1.3-0.8s-0.8-0.7-1.1-1.1l1.5-1.1c0.4,0.6,0.9,1.1,1.5,1.5c0.7,0.4,1.4,0.6,2.3,0.6
			c0.4,0,0.9-0.1,1.3-0.2s0.9-0.3,1.2-0.6c0.4-0.3,0.7-0.6,0.9-1c0.2-0.4,0.3-0.9,0.3-1.4c0-0.6-0.1-1.1-0.3-1.5
			c-0.2-0.4-0.5-0.7-0.9-1s-0.8-0.5-1.3-0.7s-1-0.4-1.6-0.5c-0.6-0.2-1.1-0.4-1.7-0.6s-1-0.5-1.5-0.9c-0.4-0.4-0.8-0.8-1-1.3
			c-0.3-0.5-0.4-1.2-0.4-1.9c0-0.8,0.2-1.5,0.5-2.1s0.8-1.1,1.3-1.5s1.1-0.7,1.8-0.8c0.6-0.2,1.3-0.3,1.9-0.3c1.2,0,2.1,0.2,3,0.6
			c0.8,0.4,1.4,0.9,1.8,1.5L392,290.8z"/>
		<path id="XMLID_7_" class="st1" d="M397.2,305.1h-1.9l7.3-17h1.7l7.3,17h-1.9l-1.9-4.5H399L397.2,305.1z M399.7,299h7.5l-3.7-9
			L399.7,299z"/>
		<path id="XMLID_10_" class="st1" d="M414,295.2c0-0.5,0-0.9-0.1-1.3h1.6c0,0.3,0.1,0.6,0.1,1s0,0.7,0,0.9l0,0
			c0.3-0.7,0.8-1.2,1.4-1.6s1.4-0.6,2.2-0.6c0.2,0,0.4,0,0.6,0s0.3,0,0.5,0.1l-0.2,1.6c-0.1,0-0.3-0.1-0.5-0.1s-0.4,0-0.7,0
			c-0.4,0-0.8,0.1-1.2,0.2c-0.4,0.2-0.7,0.4-1,0.8s-0.5,0.8-0.7,1.3s-0.3,1.2-0.3,1.9v5.7H414v-8.8C414,296,414,295.6,414,295.2z"/>
		<path id="XMLID_12_" class="st1" d="M427.5,295.2h-3.2v6.6c0,0.4,0,0.8,0.1,1s0.2,0.5,0.3,0.6c0.2,0.2,0.3,0.3,0.5,0.3
			c0.2,0.1,0.4,0.1,0.7,0.1c0.2,0,0.5,0,0.7-0.1s0.5-0.2,0.7-0.3l0.1,1.4c-0.3,0.1-0.6,0.2-0.9,0.3c-0.3,0.1-0.7,0.1-1,0.1
			s-0.6,0-1-0.1c-0.3-0.1-0.6-0.2-0.9-0.5c-0.3-0.2-0.5-0.5-0.7-0.9s-0.3-0.9-0.3-1.5v-7h-2.3v-1.4h2.3v-3.2h1.6v3.2h3.2
			L427.5,295.2L427.5,295.2z"/>
		<path id="XMLID_14_" class="st1" d="M378.6,324.5L378.6,324.5l4.3-10.5h2v12.7h-1.3v-11.1l0,0l-4.6,11.1h-0.7l-4.6-11.1l0,0v11.1
			h-1.3V314h2L378.6,324.5z"/>
		<path id="XMLID_16_" class="st1" d="M393.5,321.2c0-0.7-0.2-1.3-0.6-1.6c-0.4-0.4-0.9-0.5-1.7-0.5c-0.5,0-1,0.1-1.4,0.3
			c-0.4,0.2-0.8,0.4-1.1,0.7l-0.7-0.8c0.3-0.3,0.8-0.6,1.4-0.9c0.6-0.2,1.2-0.3,1.9-0.3c0.5,0,0.9,0.1,1.3,0.2s0.7,0.3,1,0.6
			s0.5,0.6,0.7,1s0.3,0.8,0.3,1.3v3.7c0,0.3,0,0.7,0,1s0.1,0.6,0.1,0.9h-1.1c0-0.2-0.1-0.4-0.1-0.7c0-0.2,0-0.5,0-0.7l0,0
			c-0.4,0.6-0.8,1-1.3,1.2s-1.1,0.4-1.8,0.4c-0.3,0-0.7,0-1-0.1s-0.7-0.2-0.9-0.4s-0.5-0.5-0.7-0.8s-0.3-0.7-0.3-1.2
			c0-0.6,0.2-1.2,0.5-1.5c0.3-0.4,0.8-0.7,1.3-0.8s1.2-0.3,1.9-0.4c0.7-0.1,1.5-0.1,2.2-0.1v-0.5H393.5z M393.2,322.5
			c-0.5,0-1,0-1.5,0.1s-1,0.1-1.4,0.3s-0.8,0.3-1,0.5c-0.3,0.2-0.4,0.6-0.4,1c0,0.3,0.1,0.6,0.2,0.8s0.3,0.4,0.5,0.5
			s0.4,0.2,0.6,0.3c0.2,0.1,0.5,0.1,0.7,0.1c0.4,0,0.8-0.1,1.2-0.2s0.6-0.4,0.8-0.6c0.2-0.3,0.4-0.6,0.5-0.9s0.2-0.7,0.2-1.1v-0.6
			h-0.4V322.5z"/>
		<path id="XMLID_19_" class="st1" d="M399.3,315c0,0.3-0.1,0.5-0.3,0.6c-0.2,0.2-0.4,0.2-0.6,0.2s-0.4-0.1-0.6-0.2
			c-0.2-0.2-0.3-0.4-0.3-0.6s0.1-0.5,0.3-0.6c0.2-0.2,0.4-0.2,0.6-0.2s0.4,0.1,0.6,0.2C399.2,314.6,399.3,314.8,399.3,315z
			 M399.1,326.7h-1.2v-8.4h1.2V326.7z"/>
		<path id="XMLID_22_" class="st1" d="M403.4,318.3c0,0.2,0,0.5,0.1,0.8c0,0.3,0,0.5,0,0.7l0,0c0.2-0.5,0.6-0.9,1.2-1.2
			s1.1-0.5,1.7-0.5c1.1,0,1.9,0.3,2.4,1c0.5,0.6,0.8,1.5,0.8,2.5v5.2h-1.2V322c0-0.4,0-0.8-0.1-1.2c-0.1-0.4-0.2-0.7-0.4-0.9
			c-0.2-0.3-0.4-0.5-0.7-0.6c-0.3-0.1-0.7-0.2-1.1-0.2c-0.3,0-0.6,0.1-0.9,0.2s-0.6,0.3-0.8,0.6c-0.2,0.3-0.4,0.6-0.6,1
			c-0.1,0.4-0.2,0.9-0.2,1.5v4.3h-1.2v-6.6c0-0.2,0-0.5,0-0.9s0-0.7-0.1-1h1.1V318.3z"/>
		<path id="XMLID_24_" class="st1" d="M420.5,322.2c0,0.1,0,0.2,0,0.3c0,0.1,0,0.2,0,0.3h-7c0,0.4,0.1,0.8,0.3,1.2
			c0.2,0.4,0.4,0.7,0.6,1c0.3,0.3,0.6,0.5,1,0.7s0.8,0.2,1.2,0.2c0.6,0,1.2-0.1,1.6-0.4s0.8-0.6,1.1-1l0.9,0.7
			c-0.5,0.6-1.1,1.1-1.7,1.4s-1.3,0.4-2,0.4c-0.6,0-1.2-0.1-1.7-0.3c-0.5-0.2-1-0.5-1.4-0.9s-0.7-0.9-0.9-1.4
			c-0.2-0.5-0.3-1.1-0.3-1.8c0-0.6,0.1-1.2,0.3-1.8s0.5-1,0.9-1.4s0.8-0.7,1.3-0.9c0.5-0.2,1.1-0.3,1.7-0.3c0.7,0,1.2,0.1,1.7,0.3
			s0.9,0.5,1.3,0.9c0.3,0.4,0.6,0.8,0.8,1.3C420.4,321.1,420.5,321.7,420.5,322.2z M419.2,321.8c0-0.8-0.3-1.4-0.8-2
			c-0.5-0.5-1.1-0.8-2-0.8c-0.4,0-0.8,0.1-1.1,0.2c-0.3,0.2-0.7,0.4-0.9,0.6c-0.3,0.3-0.5,0.6-0.6,0.9c-0.2,0.3-0.2,0.7-0.3,1
			L419.2,321.8L419.2,321.8z"/>
	</g>
</g>
</svg>
